<svg xmlns="http://www.w3.org/2000/svg" viewBox="0 0 64 64" fill="none">
  <defs>
    <linearGradient id="alicloud" x1="0%" y1="0%" x2="100%" y2="100%">
      <stop offset="0%" style="stop-color:#FF6A00"/>
      <stop offset="100%" style="stop-color:#FF8C00"/>
    </linearGradient>
  </defs>
  <!-- 阿里云风格云朵 -->
  <path d="M52 36c0-6.627-5.373-12-12-12-1.258 0-2.47.194-3.608.553C34.256 18.167 28.575 14 22 14c-8.284 0-15 6.716-15 15 0 .338.011.673.034 1.006C4.016 31.48 2 34.49 2 38c0 5.523 4.477 10 10 10h36c5.523 0 10-4.477 10-10 0-3.866-2.193-7.222-5.406-8.894A12.062 12.062 0 0052 36z" fill="url(#alicloud)"/>
  <!-- AI 星标 -->
  <circle cx="32" cy="34" r="8" fill="white" fill-opacity="0.9"/>
  <path d="M32 28v12M26 34h12" stroke="#FF6A00" stroke-width="2.5" stroke-linecap="round"/>
</svg>
